<?xml version="1.0" encoding="UTF-8"?>
<svg id="Layer_1" xmlns="http://www.w3.org/2000/svg" version="1.1" viewBox="0 0 63.1 790.2">
  <!-- Generator: Adobe Illustrator 30.0.0, SVG Export Plug-In . SVG Version: 2.1.1 Build 123)  -->
  <defs>
    <style>
      .st0 {
        fill: #f76900;
      }
    </style>
  </defs>
  <path class="st0" d="M38.3,737.6c16,0,24.9,10.4,24.9,26.3s-8.9,26.3-24.9,26.3H1.6v-13.2h37c7.8,0,12.2-5.4,12.2-13.2s-4.4-13.2-12.2-13.2H1.6v-12.9h36.6Z"/>
  <path class="st0" d="M61.5,713.6v13.2H1.6v-24.9c0-11.8,7.4-21,19.6-21s19.6,9.2,19.6,21v11.6h20.7ZM29.4,703.6c0-5.8-2.9-8.7-8.2-8.7s-8.1,2.9-8.1,8.7v10.1h16.2v-10.1Z"/>
  <path class="st0" d="M17.2,630c-2.9,3-5.5,8.1-5.5,14.2,0,11.8,7.3,19.1,19.9,19.1s19.9-7.3,19.9-18-2.2-10.7-5.4-14.2l9.3-7.3c5,5.4,7.9,13.1,7.9,21.4,0,18.4-13.2,31.1-31.6,31.1s-31.6-12.7-31.6-31.1,1.5-13.1,5.1-18.1l12.2,2.6Z"/>
  <path class="st0" d="M0,590.9c0-17.9,13.2-31.4,31.6-31.4s31.6,13.5,31.6,31.4-13.2,31.3-31.6,31.3-31.6-13.5-31.6-31.3ZM51.4,590.9c0-10.5-7.5-18.2-19.9-18.2s-19.9,7.7-19.9,18.2,7.5,18.1,19.9,18.1,19.9-7.7,19.9-18.1Z"/>
  <path class="st0" d="M1.6,485.6l59.9-5.8v13.7l-35.8,3.3,35.8,14v12.6l-35.3,13.8,35.3,3.2v13.3l-59.9-5.8v-15.1l41.5-15.7-41.5-16v-15.4Z"/>
  <path class="st0" d="M61.5,470.3H1.6v-13.2h59.9v13.2Z"/>
  <path class="st0" d="M38.6,406.9H1.6v-13.1h59.9v11.2l-37,28h37v13.1H1.6v-11.2l37-28Z"/>
  <path class="st0" d="M63.1,354.5c0,18.4-13.2,31.1-31.6,31.1S0,372.9,0,353.8s3-16.3,6-20.2l12.2,2.5c-2.4,2.6-6.4,8.4-6.4,16.5,0,12.5,7.3,19.9,19.9,19.9s19.9-7.3,19.9-18-.7-6.3-2-9h-8.1v8.7h-11.5v-21h25.9c4.3,4.5,7.3,12.9,7.3,21.2Z"/>
  <path class="st0" d="M61.5,269.1v39.9H1.6v-39.5h11.5v26.2h11.3v-23h11.4v23h14.1v-26.7h11.5Z"/>
  <path class="st0" d="M61.5,242.2L1.6,264.7v-14.6l43.5-15.2L1.6,219.3v-14.2l59.9,22.6v14.4Z"/>
  <path class="st0" d="M61.5,159.7v39.9H1.6v-39.5h11.5v26.2h11.3v-23h11.4v23h14.1v-26.7h11.5Z"/>
  <path class="st0" d="M38.6,111.4H1.6v-13.1h59.9v11.2l-37,28h37v13.1H1.6v-11.2l37-28Z"/>
  <path class="st0" d="M61.5,76.5H13.2v15.8H1.6v-44.7h11.5v15.7h48.4v13.2Z"/>
  <path class="st0" d="M16,5.3c-1.9,2.7-4.2,8.6-4.2,14.6s2.1,9.7,5.5,9.7,5.2-2.4,6.8-10C26.5,8.4,30.3,0,43.3,0s19.9,8.1,19.9,23.9-3.1,16.1-5.2,19.2l-12.2-2.1c2.5-3.4,5.5-9.9,5.5-17.1s-2.5-10.9-7.1-10.9-6.5,3.2-8.8,12.1c-2.4,10.1-6,17.5-17.4,17.5S0,34.7,0,20.7,2.9,5.4,4.6,3.1l11.3,2.2Z"/>
</svg>